<?xml version="1.0" encoding="UTF-8" standalone="no"?>
<!-- Created with Inkscape (http://www.inkscape.org/) -->
<svg id="svg2" xmlns:rdf="http://www.w3.org/1999/02/22-rdf-syntax-ns#" xmlns="http://www.w3.org/2000/svg" height="297mm" width="210mm" version="1.1" xmlns:cc="http://creativecommons.org/ns#" xmlns:dc="http://purl.org/dc/elements/1.1/" viewBox="0 0 744.09448819 1052.3622047">
 <metadata id="metadata7">
  <rdf:RDF>
   <cc:Work rdf:about="">
    <dc:format>image/svg+xml</dc:format>
    <dc:type rdf:resource="http://purl.org/dc/dcmitype/StillImage"/>
    <dc:title/>
   </cc:Work>
  </rdf:RDF>
 </metadata>
 <g id="layer1">
  <path id="path3401" d="m126.18 349.37c-12.62-3.3345-35.818-13.453-41.568-18.131-1.0593-0.86179-6.247-4.9938-11.528-9.1823-20.119-15.956-37.086-43.509-44.114-71.635-5.1755-20.713-4.2777-49.938 2.1315-69.385 14.789-44.872 45.555-75.535 89.962-89.662 12.853-4.0887 17.208-4.617 38.377-4.6548 20.458-0.0366 25.693 0.53419 36.541 3.9836 32.782 10.424 51.959 24.346 75.737 54.98 4.8524 6.2515 14.408 27.168 17.494 38.292 3.7072 13.363 5.123 46.885 2.4847 58.832-1.1211 5.0766-2.4063 11.116-2.8561 13.42-1.7504 8.9676-11.473 29.412-19.261 40.502-31.839 45.337-90.101 66.724-143.4 52.641zm0.85482-7.7822c-0.49857-0.80672 0.0511-5.047 1.2214-9.4228 1.9449-7.272 1.8458-8.1623-1.153-10.355-7.5365-5.5108-16.286-1.6324-18.636 8.2614-0.61293 2.5798-1.9126 4.6906-2.8882 4.6906-0.97561 0-1.2995 0.76755-0.71967 1.7057 0.57978 0.93811 2.3521 1.7039 3.9384 1.7018 2.0201-0.003 2.938-1.522 3.0635-5.0709 0.22841-6.4552 3.6399-10.585 8.1998-9.9266 4.0706 0.58791 4.194 5.7002 0.32491 13.456-2.1082 4.226-1.9944 4.7691 1.3169 6.2852 3.8989 1.7852 6.8077 1.0622 5.3321-1.3254zm74.447-0.13868c3.3121-1.7726 3.3238-1.9272 0.31428-4.1587-3.015-2.2355-3.0055-2.4067 0.26675-4.8304 4.0338-2.9877 5.9886-2.1659 5.9886 2.5174 0 2.7589 0.7469 3.2 3.8378 2.2661 5.2368-1.5821 7.8367-4.1873 4.1789-4.1873-1.5948 0-2.9044-0.95944-2.9101-2.1321-0.005-1.1726-1.153-4.3227-2.5494-7.0002-1.3964-2.6774-2.114-5.5558-1.5945-6.3962 1.0798-1.7472-2.792-2.0281-6.7929-0.49282-3.4226 1.3134-3.5172 4.0817-0.1395 4.0817 3.0839 0 3.445 6.1317 0.42641 7.2417-3.5163 1.2931-6.3962-0.49556-6.3962-3.9725 0-2.35-1.1989-3.2692-4.2642-3.2692-5.1305 0-5.1348 0.035-0.89718 7.2173 1.8518 3.1386 3.7137 7.5959 4.1374 9.9051 0.42374 2.3092 0.82747 4.3904 0.89718 4.6249 0.25711 0.86498 2.1452 0.37905 5.4967-1.4146zm-109.76-15.83c-0.68472-3.1652 7.0779-13.034 10.252-13.034 2.1134 0 2.0215-0.60362-0.51946-3.4113-4.0825-4.5112-5.9698-4.3076-5.9698 0.64399 0 2.2304-1.1513 5.0108-2.5585 6.1787-2.1581 1.791-2.5585 1.4566-2.5585-2.1364 0-6.3526-1.9551-14.92-3.4047-14.92-0.69993 0-3.0985 2.6876-5.3302 5.9724s-5.4412 6.4196-7.1323 6.9661c-2.4367 0.7875-2.6588 1.4949-1.0704 3.4088 2.1277 2.5638 7.531 3.428 6.0061 0.96066-0.49437-0.7999 0.11111-2.8356 1.3455-4.5237 2.0139-2.7542 2.3663-2.307 3.4315 4.3547 1.2003 7.5062 3.5628 11.857 6.4381 11.857 0.86437 0 1.346-1.0426 1.0704-2.3168zm146.78-4.0794c5.4401-4.6032 6.1879-10.877 1.94-16.278-4.2228-5.3684-9.8894-5.9488-15.301-1.567-2.5701 2.0811-3.5394 4.3835-3.052 7.2491l0.71433 4.1993 1.968-4.6906c2.239-5.3366 7.1574-6.1645 11.402-1.9195 1.5241 1.5241 2.5384 4.4024 2.2539 6.3962-0.40674 2.8509-1.7011 3.6216-6.0606 3.6086-5.987-0.0177-6.6768 0.75938-3.4966 3.9395 2.8243 2.8243 5.4918 2.5645 9.6312-0.93811zm-57.922-2.8514c10.558-1.6148 20.912-6.3961 19.849-9.166-0.78283-2.04-0.49096-2.1364 1.4904-0.49201 3.4708 2.8805 9.4693-0.69479 25.24-15.044 6.3525-5.78 8.0264-8.3362 7.26-11.087-0.72333-2.596-0.55064-2.9312 0.63061-1.2243 2.172 3.1385 5.9294 0.63647 4.9082-3.2683-0.50148-1.9177-0.0397-2.7962 1.2165-2.3142 1.7584 0.67474 7.9941-9.3982 7.6549-12.365-0.0677-0.59281 0.7279-1.6038 1.7681-2.2467s2.251-2.6476 2.6906-4.4549c6.0192-24.746 6.3252-26.728 4.3164-27.97-1.5236-0.94162-1.3602-1.552 0.61842-2.3113 2.1484-0.82441 2.5064-2.8431 1.7816-10.045-1.1393-11.32-4.1439-26.738-5.8917-30.232-0.73187-1.4631-3.1115-6.4979-5.288-11.189-5.9062-12.728-14.384-23.497-26.802-34.045-3.3697-2.8624-4.1768-2.9851-5.6087-0.85283-1.3392 1.9942-1.5735 1.8138-1.1751-0.90519 0.31951-2.1808-0.87568-4.0039-3.3402-5.095-2.1108-0.93455-3.8378-2.2847-3.8378-3.0004 0-0.71566-1.1783-1.3012-2.6185-1.3012s-4.4625-1.2082-6.7163-2.685c-4.9171-3.2218-22.297-7.4572-34.133-8.3179-15.443-1.123-48.768 6.6535-46.215 10.785 0.45622 0.73818-0.85847 1.2178-2.9215 1.0658-9.9973-0.73652-41.827 30.74-39.506 39.068 0.67531 2.4233 0.4996 2.8644-0.54417 1.3662-1.2632-1.8133-1.8505-1.8133-3.2531 0-2.0324 2.6277-7.6944 16.476-8.2269 20.122-0.20552 1.4072-1.0217 4.0936-1.8138 5.9698-1.7544 4.1557-1.9233 37.427-0.22265 43.861 0.90782 3.4345 1.9903 4.3664 4.1915 3.6083 2.5914-0.89254 2.5652-0.70815-0.20654 1.4549-2.7639 2.1569-2.8564 2.7947-0.71577 4.9353 1.3521 1.3521 2.2437 3.219 1.9815 4.1487-0.26223 0.92974 0.82742 4.108 2.4214 7.0628s4.3694 8.2211 6.1674 11.703c3.7781 7.3158 22.058 26.109 28.94 29.752 4.0975 2.1691 4.8978 2.1691 6.3906 0 1.3178-1.9149 1.4841-1.6796 0.73005 1.0333-0.81387 2.9281 0.45575 4.1383 7.6264 7.2693 4.7316 2.066 10.302 4.074 12.378 4.4622 2.0763 0.38821 3.7751 0.8199 3.7751 0.95932 0 0.13935 1.8723 0.5976 4.1606 1.0182 2.2883 0.42056 4.4187 1.0227 4.7341 1.3382 0.78844 0.78844 28.999-0.28171 36.114-1.37zm-20.619-32.115c0.2938-14.306 0.85064-26.971 1.2374-28.143 0.38678-1.1726 2.3445-2.1321 4.3506-2.1321 2.5413 0 3.3496-0.77584 2.6656-2.5585-0.64463-1.6799 0.0542-2.5585 2.0349-2.5585 1.6592 0 4.0503-0.95943 5.3137-2.1321 1.8376-1.7057 2.0563-1.7057 1.0933 0-2.0508 3.6325 3.3583 2.3913 6.8352-1.5685 3.0545-3.4788 3.0629-3.6324 0.13918-2.564-2.6215 0.95803-2.4875 0.37315 0.85283-3.723 2.1796-2.6728 4.8215-4.5458 5.8708-4.1622 1.0494 0.38356 2.373-1.073 2.9414-3.2368 0.56842-2.1638 0.39707-4.1529-0.38077-4.4202-1.9107-0.65649-0.23112-8.8952 1.8134-8.8952 0.89106 0 1.3772-2.1108 1.0804-4.6906-0.30354-2.6381-1.4726-4.504-2.6718-4.2642-2.0031 0.40063-2.8506-2.2885-2.531-8.031 0.22032-3.9589-3.0795-8.9384-5.3467-8.0684-2.4838 0.95313-8.7525-3.3168-8.7525-5.9617 0-3.0296-6.2488-6.0947-7.1841-3.5238-1.0655 2.9286-4.823 2.6738-8.0422-0.54542-2.9515-2.9515-10.576-2.6346-9.9891 0.41527 0.40226 2.091-7.8019 4.7795-9.4762 3.1053-0.97384-0.97383 2.0272-3.5121 5.6527-4.781 0.91468-0.32013-3.0638-6.2674-8.8411-13.216-5.7773-6.9488-9.8575-13.034-9.0671-13.522 0.7904-0.4885 2.3614-7.2098 3.4912-14.936 1.1297-7.7264 2.701-13.648 3.4918-13.159 0.79074 0.4887 1.0163 1.9868 0.50122 3.329-0.51506 1.3422 0.19425 6.1148 1.5762 10.606 1.382 4.4909 4.3094 14.881 6.5052 23.09 2.1959 8.2085 4.5292 14.925 5.1851 14.925 0.65596 0 1.7029-5.181 2.3265-11.513 0.6236-6.3323 1.5028-13.432 1.9539-15.777 0.45102-2.3453 1.3451-7.7181 1.9869-11.94 0.85307-5.6116 1.3962-1.2544 2.0197 16.204l0.85283 23.879 4.9056 0.56045c4.6928 0.53616 4.8632 0.31425 3.9279-5.117-0.53769-3.1226-1.4843-10.042-2.1036-15.377-1.1149-9.6032-1.0454-9.806 7.0085-20.468 10.105-13.377 11.889-15.253 10.245-10.769-0.6879 1.8762-1.546 4.867-1.9069 6.6461s-1.4162 5.6169-2.3451 8.5283c-2.896 9.0768-8.6447 31.563-8.6447 33.815 0 2.5102 5.4708-3.1356 13.747-14.187 11.811-15.771 20.366-25.675 20.366-23.577 0 1.183-1.2282 3.5082-2.7294 5.167s-7.3129 10.93-12.915 20.602c-7.4134 12.8-9.7534 18.283-8.5979 20.145 0.87315 1.4072 2.5028 2.5585 3.6214 2.5585 1.9312 0 8.8206-14.848 11.096-23.915 0.58375-2.3258 2.2613-4.2288 3.7279-4.2288s7.9129-2.3026 14.325-5.117c6.4122-2.8144 12.046-5.117 12.52-5.117 0.4737 0-7.9061 8.5671-18.622 19.038s-19.483 19.67-19.483 20.443c0 1.3416 12.114-2.8958 23.052-8.0634 2.8283-1.3362 7.4336-3.119 10.234-3.9618 2.8004-0.84275 8.1618-2.7928 11.914-4.3334l6.8227-2.8011-4.2387 3.3679c-2.3313 1.8524-4.528 3.0786-4.8816 2.725-0.73522-0.73523-15.624 7.4124-28.831 15.777-4.9251 3.1194-8.9547 6.8235-8.9547 8.2313 0 5.6001 5.2953 4.1688 15.688-4.2406 5.9111-4.7829 11.574-8.3792 12.583-7.9918 1.0097 0.38744 7.1505 1.2581 13.646 1.9348 14.607 1.5217 17.299 2.963 8.3991 4.4982-7.5032 1.2944-20.157 4.5202-35.672 9.0941-12.527 3.6931-10.653 5.0017 10.94 7.638 8.9121 1.0881 21.193 2.9062 27.291 4.0402 10.493 1.9514 9.4877 2.0596-18.762 2.0198-29.671-0.0418-29.852-0.0191-30.394 3.7957-0.48561 3.4192 0.16562 3.8267 5.9698 3.7361 3.5832-0.0559 10.343-0.72943 15.022-1.4967 8.4602-1.3874 8.5749-1.3437 20.97 7.9854 6.855 5.1592 12.064 9.7799 11.576 10.268-0.4882 0.4882-1.8656 0.11377-3.0609-0.83219-1.1953-0.94591-4.0922-2.0988-6.4375-2.5619-2.3453-0.46314-11.868-2.9018-21.163-5.4193-22.443-6.0791-24.62-5.3521-12.323 4.1153 25.581 19.695 43.8 36.387 23.252 21.303-4.4729-3.2834-8.6788-5.9698-9.3464-5.9698-0.66761 0-3.2512-1.4381-5.7413-3.1957s-8.5671-5.2973-13.504-7.8659c-7.2944-3.7948-9.4524-4.2756-11.513-2.5653-4.6098 3.8258-4.2867 4.0364 20.917 13.635 3.5573 1.3548 5.5434 3.2676 5.5434 5.3388 0 1.7752 0.75709 4.5603 1.6824 6.1893 0.92533 1.629 3.5247 7.2738 5.7764 12.544l4.0939 9.5823-19.848-20.447c-11.747-12.102-20.049-19.445-20.34-17.992-0.27069 1.3501 4.1015 13.915 9.7159 27.921 6.4526 16.097 8.8299 23.597 6.462 20.386-2.0604-2.7944-3.5387-5.2969-3.2851-5.5613 1.6044-1.6728-21.598-39.675-24.223-39.675-5.6415 0-9.5644 10.762-12.046 33.047-0.50918 4.5732-1.2861 8.8978-1.7264 9.6103-0.44035 0.71251-0.93463 4.8382-1.0984 9.1682s-0.75426 7.8727-1.3122 7.8727c-0.55792 0-0.77401-11.705-0.48021-26.011zm-25.243 22.098c0-1.4439 0.69722-2.881 1.5494-3.1938 1.6134-0.59205 14.202-45.937 13.068-47.071-0.35533-0.35532-4.6014 4.2057-9.4358 10.136-4.8343 5.9299-10.977 13.468-13.65 16.751-2.6733 3.2834-6.4413 7.8887-8.3733 10.234-4.79 5.8148-4.5924 1.6881 0.21157-4.4178 3.9245-4.988 14.925-22.694 14.925-24.023 0-0.40517 1.9007-3.5339 4.2239-6.9526 3.9297-5.7831 4.0301-6.4301 1.4413-9.2907-4.0457-4.4704-4.8873-3.9491-8.1151 5.0272-4.6422 12.91-8.259 20.988-9.0451 20.202-0.39996-0.39995-7.2642 2.2786-15.254 5.9524-16.224 7.46-17.219 7.762-13.578 4.1211 1.4072-1.4072 3.2861-2.5585 4.1755-2.5585 2.5974 0 35.06-34.761 33.08-35.421-1.5386-0.51286-10.066 2.499-23.366 8.253-2.9688 1.2844-12.622 5.024-23.879 9.2507-2.5673 0.96392-2.3592 0.50007 0.84126-1.8748 2.3389-1.7356 5.0644-3.2748 6.0565-3.4204 1.7258-0.25329 29.119-15.717 35.299-19.926 2.4637-1.6781 3.4401-1.3442 5.7618 1.9705 1.5809 2.257 3.2585 3.2417 3.8613 2.2664 1.0111-1.6361 8.9776 3.3838 8.8062 5.5489-0.28799 3.6377 0.41986 4.3566 4.29 4.3566 2.4006 0 3.9763-0.62867 3.5014-1.397-0.47488-0.76837 1.2708-1.0838 3.8792-0.70096 2.7622 0.40542 4.7426 1.7614 4.7426 3.2472 0 1.7529-1.2453 2.3131-3.9799 1.7903-4.6193-0.88302-4.7884 0.37431-2.3338 17.354l1.5775 10.913-7.5833 10.627c-8.9858 12.592-12.697 16.172-12.697 12.246zm46.488-8.4362c-1.083-5.8724-3.8751-17.572-6.2048-26-2.3297-8.4277-4.0452-15.514-3.8122-15.747 0.23297-0.23297 4.8323 4.9354 10.221 11.485 5.3884 6.5499 9.0944 11.909 8.2354 11.909-0.85898 0-2.0698 5.4661-2.6907 12.147-1.5891 17.099-3.3825 19.035-5.7484 6.2058zm-96.29-53.11c-7.2155-1.0972-13.583-2.459-14.151-3.0263-0.56728-0.56727 2.5968-1.5755 7.0313-2.2405s12.721-2.5724 18.415-4.2388c5.6936-1.6663 13.689-3.9543 17.767-5.0844 4.0783-1.1301 7.09-2.3799 6.6926-2.7774-0.84023-0.84022-16.132-3.8365-25.744-5.0441-3.6404-0.45739-7.1663-1.1699-7.8353-1.5834-0.66906-0.4135-4.8577-0.94031-9.308-1.1707-4.4504-0.23037-8.3578-0.84877-8.6832-1.3742-0.32542-0.52547 11.424-0.95538 26.111-0.95538h26.703l0.57331-4.0534c0.54697-3.8672 0.23352-4.0036-6.8227-2.9694-19.079 2.7965-22.393 3.0149-23.387 1.5417-0.58612-0.86901-5.4233-4.7714-10.749-8.672-9.7903-7.1702-15.083-12.585-8.8309-9.0343 5.0671 2.8776 48.364 13.693 48.364 12.081 0-0.80511-8.2923-7.9696-18.427-15.921-19.121-15.001-26.919-22.332-19.619-18.442 2.0585 1.0967 4.182 2.7048 4.7188 3.5734 0.53685 0.86863 9.7796 6.6914 20.539 12.94 17.146 9.9564 19.355 11.749 17.881 14.503-2.4116 4.506-2.0737 7.2938 0.75248 6.2093 1.9983-0.7668 2.1212-0.0355 0.68598 4.0817-0.96171 2.7587-2.441 5.0159-3.2874 5.0159-0.84635 0-1.5388 1.9189-1.5388 4.2642 0 2.4262 0.9848 4.2642 2.2847 4.2642 1.2566 0 3.159 1.9189 4.2276 4.2642 1.5955 3.5018 1.492 4.2642-0.57905 4.2642-1.3871 0-2.5219-1.106-2.5219-2.4578 0-5.2752-3.5449-4.0179-14.117 5.0068-6.0502 5.1648-11.681 9.3099-12.514 9.2111-0.83227-0.0988-7.4168-1.0772-14.632-2.1744zm67.7-13.352c-5.4972-3.1526-7.5634-6.8926-7.6212-13.795-0.11742-14.013 15.506-20.017 25.662-9.8612 2.7422 2.7422 4.9858 6.5438 4.9858 8.4481 0 12.134-13.193 20.847-23.026 15.208zm-23.971-32.202c-0.63031-1.0199-0.29183-2.7085 0.75216-3.7525 3.2596-3.2596 2.2237-4.2037-9.615-8.7629-6.3323-2.4387-12.351-5.0003-13.375-5.6925-1.3911-0.94052-12.637-26.288-12.637-28.483 0-0.20151 8.398 8.1252 18.662 18.504s19.106 18.426 19.649 17.884c0.54262-0.54262-1.622-7.4317-4.8104-15.309-10.965-27.091-13.064-32.769-12.371-33.462 0.38196-0.38196 2.576 3.3843 4.8755 8.3695 2.2996 4.9852 7.7512 15.076 12.115 22.424 8.8126 14.84 9.0728 15.687 5.266 17.148-1.4672 0.56303-2.5006 2.3721-2.2964 4.0202 0.78662 6.348-3.5908 11.358-6.2146 7.1121zm30.21-76.606c0-2.3453 0.38714-3.3047 0.86032-2.1321 0.47317 1.1726 0.47317 3.0915 0 4.2642-0.47318 1.1726-0.86032 0.21321-0.86032-2.1321zm-95.787 175.75c0-2.6956 9.1179-10.303 12.349-10.303 3.8402 0 3.777-1.0356-0.38564-6.3276-3.1005-3.9416-3.4894-4.0428-4.5834-1.1918-1.4799 3.8565-9.1896 10.804-12.07 10.877-2.6695 0.0676-2.6722 0.94098-0.0162 5.194 2.2358 3.5799 4.7068 4.4995 4.7068 1.7516zm198.52-3.2756c2.7585-3.0481 2.6971-3.258-1.2422-4.2467-2.2793-0.57204-6.633-3.3651-9.6751-6.2068-5.1757-4.8348-5.678-4.9729-7.8203-2.1496-3.152 4.1539-2.9482 5.5756 0.79902 5.5756 1.7583 0 5.4042 2.2039 8.1019 4.8976 6.046 6.0369 6.259 6.083 9.8367 2.1298zm-212.16-17.68c0.000833-1.1726 3.061-5.1 6.8003-8.7274s6.3798-7.2733 5.8676-8.1019c-0.5121-0.82859-6.2857-1.5066-12.83-1.5066-11.807 0-11.883 0.0297-9.8475 3.8332 1.2643 2.3624 2.3236 3.0169 2.7606 1.7057 0.72091-2.1628 10.659-3.0789 10.659-0.9826 0 2.1255-5.6282 7.3834-7.9033 7.3834-1.7891 0-1.8544 0.88492-0.31469 4.2642 2.0521 4.504 4.8056 5.7249 4.8082 2.1321zm225.15-2.9314c0-2.1055-0.85228-3.0307-2.2852-2.4809-1.2569 0.48231-3.3676-0.43687-4.6906-2.0426-2.2122-2.6852-1.9025-2.8387 3.8578-1.9121 4.678 0.75247 6.5127 0.3572 7.2491-1.5617 1.7858-4.6536 1.045-5.7015-4.0304-5.7015-2.759 0-5.537-0.84251-6.1734-1.8723-0.79134-1.2804 1.1872-1.6848 6.2589-1.2792 5.989 0.4789 7.5292 0.0186 8.0042-2.3919 0.51659-2.6217-0.91199-2.9849-11.741-2.9849-11.836 0-12.216 0.12469-9.5062 3.1192 3.8591 4.2643 3.5541 5.4091-1.4413 5.4091-6.1441 0-5.317 2.1544 3.8378 9.9969 9.228 7.9053 10.66 8.4027 10.66 3.7019zm-227.31-33.36c8.0986-0.50977 8.1215-0.52855 7.5635-6.2069-0.57428-5.8439-4.4327-11.501-6.4609-9.473-0.62508 0.62508-0.1386 2.3389 1.0811 3.8085 1.5757 1.8986 1.6891 3.2005 0.39168 4.4979-2.3719 2.3719-5.6564 0.33206-4.4649-2.773 0.70167-1.8285-0.73549-2.3761-6.0443-2.3028-7.5475 0.10421-7.9901 0.964-5.8934 11.448 0.85414 4.2707 1.5414 4.9676 3.3878 3.4352 1.274-1.0573 5.9717-2.1524 10.439-2.4337zm-11.487-7.44c0-2.4529 0.78695-3.198 2.6306-2.4905 2.9112 1.1171 2.5531 4.2625-0.60511 5.3153-1.1248 0.37494-2.0255-0.88114-2.0255-2.8248zm250.6-2.3278c-0.074-3.0489-0.5218-4.584-0.99497-3.4113-0.47317 1.1726-3.1579 2.1321-5.966 2.1321h-5.1057l5.6743-4.6631c7.0449-5.7895 8.1738-7.3322 8.2067-11.215 0.0154-1.8189-0.74633-2.6082-1.8556-1.9226-3.0938 1.9121-16.881 2.4769-16.881 0.69156 0-0.90925-0.76755-1.6532-1.7057-1.6532-0.93811 0-1.7057 2.0129-1.7057 4.473 0 3.3821 0.52 4.0428 2.1321 2.7091 1.1726-0.97015 4.3231-1.6398 7.0011-1.4881l4.869 0.27582-7.974 7.0205c-8.7998 7.7477-8.1363 9.1833 4.2446 9.1833 3.6204 0 7.0569 0.76755 7.6366 1.7057 1.8475 2.9893 2.5622 1.8577 2.4238-3.8377zm-233.12-20.93c0.45261-2.3677 0.15832-4.7156-0.65399-5.2176-0.81231-0.50205-1.4769-0.0999-1.4769 0.89353 0 0.99348-1.1513 1.8063-2.5585 1.8063-4.0766 0-2.9626-3.3421 1.7057-5.117 2.6106-0.99256 4.2642-2.9604 4.2642-5.0748 0-4.1504-0.6307-4.2365-5.8719-0.80236-2.6899 1.7625-4.4188 2.0484-5.1576 0.85283-1.5226-2.4635-6.9297-2.2647-9.077 0.33373-0.96903 1.1726-2.2879 4.9472-2.9308 8.388l-1.169 6.2559 6.7846-0.91001c3.7315-0.50051 8.2185-0.0769 9.9711 0.94134 4.6109 2.6789 5.2559 2.4333 6.1702-2.3498zm-17.091-6.2489c1.0542-3.1627 4.7261-3.6872 4.7261-0.67515 0 1.4853-1.2153 2.7006-2.7006 2.7006-1.4854 0-2.3968-0.91146-2.0255-2.0255zm232.7-9.6221c-3.5191-3.8886-3.5277-4.7737-0.0589-6.1048 2.1072-0.80861 2.5566-0.26718 1.8909 2.2782-0.76726 2.934-0.0444 3.3059 5.9599 3.0664 7.9785-0.31816 9.1893-2.2938 6.465-10.548-1.7906-5.4258-5.1402-8.374-5.1402-4.5243 0 1.5223-10.799 4.469-15.084 4.1159-1.7264-0.14225-2.0036 1.3448-1.1244 6.0315 1.5093 8.0453 2.0561 8.8048 6.3392 8.8048 3.3554 0 3.4016-0.19163 0.75219-3.1192zm7.8375-4.8331c-3.3424-1.3487-2.4959-3.9874 1.2792-3.9874 1.8952 0 3.4113 1.1371 3.4113 2.5585 0 2.6283-0.97891 2.9266-4.6906 1.4289zm-216.36-11.16c3.0107-8.561-5.5726-13.331-11.735-6.5218-1.6779 1.8541-3.7158 2.9601-4.5285 2.4578-2.6885-1.6616-1.534-4.1233 1.9336-4.1233 4.1844 0 4.482-2.6355 0.47141-4.1745-6.3352-2.431-9.9239 9.4697-3.8377 12.727 2.7643 1.4794 4.4916 1.1126 8.6265-1.8317 5.4373-3.8717 7.7844-3.5321 6.0909 0.88125-0.55551 1.4476-2.7611 2.6438-4.9013 2.6582-3.1509 0.0212-3.4045 0.34526-1.3328 1.7035 4.004 2.6251 7.4598 1.2086 9.2129-3.7764zm200.58-9.9936c0-0.88275-1.106-1.605-2.4578-1.605-3.561 0-5.2032-3.5385-2.4513-5.2816 3.571-2.2618 5.3856-1.8317 4.2923 1.0174-1.1273 2.9377 3.1952 3.5805 4.9528 0.73656 0.61933-1.0021 2.1751-1.4194 3.4574-0.92734 4.0104 1.5389 4.6514-2.3965 1.5209-9.3385-3.0122-6.6798-5.903-8.7782-5.903-4.285 0 1.3142-3.4511 3.8088-7.6691 5.5434-8.5488 3.5156-8.7204 3.8735-5.1593 10.76 3.262 6.308 9.417 8.5172 9.417 3.3801zm3.7383-10.261c0.33615-1.0085 1.3404-1.8336 2.2316-1.8336 0.89121 0 1.8954 0.82512 2.2316 1.8336 0.33617 1.0085-0.66804 1.8336-2.2316 1.8336-1.5635 0-2.5677-0.82511-2.2316-1.8336zm-193.13 0.24006c2.1209-3.9629 2.2368-5.3756 0.39413-4.8027-2.4388 0.75824-13.979-6.2504-13.979-8.4898 0-3.3485-2.2479-2.4902-5.623 2.1471-3.0179 4.1465-3.0045 4.2106 0.87826 4.2106 2.1685 0 6.234 2.2198 9.0344 4.933 6.2037 6.0105 7.0525 6.1933 9.2957 2.0018zm171.87-12.478c-0.21054-5.6692 0.73631-7.7768 3.861-8.5939 6.2566-1.6361 6.0424-6.2099-0.60197-12.854-4.0315-4.0315-6.2121-5.2918-6.2121-3.5902 0 1.442-2.6864 5.2257-5.9698 8.4081s-5.9698 5.1239-5.9698 4.3145c0-0.80944-0.507-0.96471-1.1267-0.34505-1.283 1.283 4.2619 7.9702 6.6087 7.9702 0.84809 0 1.1214-0.68058 0.60727-1.5124-0.5141-0.83183 0.32855-2.5588 1.8726-3.8378 2.5427-2.1062 2.6998-1.7512 1.6667 3.7664-0.62731 3.3505-0.61977 6.6126 0.017 7.2491 1.9288 1.9288 5.3319 1.2967 5.2475-0.97479zm-0.35109-13.148c-0.70475-1.1403-0.43998-2.9147 0.58839-3.9431 2.6201-2.6202 4.2801-0.39335 2.319 3.1109-1.1934 2.1324-1.9669 2.3538-2.9074 0.83215zm-154.41 5.8994c3.9451-4.1994 3.9515-4.2642 0.42112-4.2642-1.9717 0-5.1757-2.0224-7.12-4.4942-4.2342-5.3829-4.4654-7.4455-0.83449-7.4455 1.4854 0 2.3808-0.95944 1.9899-2.1321-1.0995-3.2985-3.4068-2.5858-10.465 3.2325-5.0817 4.1887-6.2584 6.1515-5.3687 8.9547 0.62671 1.9746 1.9374 3.5901 2.9127 3.5901 0.97527 0 1.3408-1.1267 0.81239-2.5039-0.52845-1.3771-0.16999-2.9926 0.79661-3.59 2.4079-1.4882 10.033 5.9619 10.033 9.8026 0 4.2563 2.0716 3.9071 6.8227-1.1502zm23.722-21.478c-2.8522-2.8523-3.2986-4.7663-2.3797-10.205 0.90605-5.3628 0.61232-6.6944-1.4768-6.6944-3.2866 0-5.8069 3.8334-3.1111 4.732 2.4032 0.80109 2.7126 5.5019 0.362 5.5019-0.90511 0-2.4672-1.5351-3.4713-3.4113-1.7417-3.2543-2.0278-3.2789-6.2177-0.53357l-4.392 2.8778 4.0247 1.4888c6.5698 2.4303 11.86 8.334 10.711 11.954-0.97409 3.0691-0.77304 3.0935 4.2194 0.51175l5.2423-2.7109-3.5107-3.5107zm108.04 5.3092c2.7299-3.1882 2.7097-3.4733-0.36163-5.117-4.3964-2.3529-4.6456-2.2723-5.7236 1.8503-1.3297 5.0847-5.3306 3.0925-5.9378-2.9567-0.99241-9.887 10.294-14.09 12.648-4.7104 1.16 4.622 3.2299 5.3 4.6759 1.5318 1.2229-3.1869-7.0262-11.101-11.571-11.101-5.3608 0-11.214 6.7234-11.214 12.881 0 5.7642 2.0591 8.3836 7.6755 9.7641 6.0194 1.4796 6.8655 1.2948 9.8082-2.1421zm-54.6-16.17c0.77044-3.7081 2.2897-7.2914 3.3761-7.9629 1.4709-0.90908 1.4099-1.9022-0.23917-3.8891-1.8442-2.2221-1.7545-2.8448 0.53609-3.7238 3.735-1.4332 3.4832-4.1018-0.38695-4.1018-4.0246 0-7.9148 7.8344-7.326 14.754 0.25149 2.9548-0.36154 5.8784-1.3623 6.4969-2.9779 1.8405-2.1197 6.3482 1.0909 5.7298 1.8402-0.35438 3.4256-3.0398 4.3112-7.3026zm-9.2685 0.44914c6.1975-6.1975-2.0653-16.071-8.6136-10.292-5.1288 4.5258-2.6987 12.339 3.8378 12.339 1.501 0 3.6501-0.92106 4.7759-2.0468zm-5.4155-2.7252c-0.46252-0.74837-0.1358-2.4754 0.72605-3.8377 1.2234-1.934 1.5727-1.6357 1.5931 1.3607 0.0268 3.9453-0.83973 4.8708-2.3192 2.4771zm184 204.06c-6.8916-3.79-9.3038-8.7172-9.3432-19.085-0.0346-9.0969 0.47424-10.49 5.7613-15.777 3.4858-3.4858 7.3983-5.7456 9.8076-5.6646 2.5476 0.0856 3.076 0.47747 1.4498 1.0754-12.224 4.4946-15.332 23.172-5.7504 34.559 5.0788 6.0358 11.864 6.8167 17.758 2.0437 2.986-2.418 3.5993-4.1518 2.715-7.6755-0.62835-2.5036-2.2792-4.5519-3.6685-4.5519s-2.526-0.76755-2.526-1.7057c0-0.93812 3.8378-1.7057 8.5283-1.7057 4.6906 0 8.5283 0.76754 8.5283 1.7057 0 0.93812-0.76755 1.7057-1.7057 1.7057-0.93812 0-1.7057 2.6143-1.7057 5.8095 0 5.3935-0.57131 6.0042-7.9793 8.5283-9.2328 3.1459-17.015 3.4089-21.87 0.73909zm40.672-1.1395c2.1921-2.4222 2.8229-6.5931 2.8229-18.666 0-14.16-0.34217-15.795-3.8377-18.33-3.6418-2.6414-3.0687-2.7552 11.224-2.2288 12.548 0.46217 15.466 1.1075 17.483 3.8657 3.4484 4.716 2.9944 10.52-1.123 14.356l-3.5439 3.3017 4.5819 7.4252c2.52 4.0839 5.7677 8.3635 7.2171 9.5104 2.3488 1.8586 2.3036 2.2124-0.41698 3.2564-4.4969 1.7256-7.984-1.1522-13.357-11.023-3.2282-5.9307-5.8799-8.8162-8.1019-8.8162-2.8082 0-3.3031 1.2266-3.3031 8.1872 0 4.503 0.92106 9.1082 2.0468 10.234 1.592 1.592 0.20658 2.0468-6.2342 2.0468-7.9144 0-8.156-0.13816-5.4581-3.1192zm19.992-20.82c6.8373-3.6592 1.3956-16.997-6.9348-16.997-2.9408 0-3.4113 1.1371-3.4113 8.244 0 10.842 2.4965 12.954 10.346 8.7526zm23.426 21.893c1.3257-1.3257 2.0468-8.2063 2.0468-19.53 0-14.852-0.44934-17.745-2.9849-19.222-2.1855-1.273 1.2404-1.7524 12.792-1.7904l15.777-0.0519-0.13475 4.6906c-0.0785 2.7358-0.54053 3.6243-1.1086 2.1321-1.4313-3.7601-4.0569-5.0616-10.27-5.0909-5.5185-0.0259-5.5434 0.0119-5.5434 8.5022 0 7.6154 0.39641 8.5283 3.7034 8.5283 2.0369 0 5.1071-1.2703 6.8227-2.8229 2.9767-2.6939 3.1192-2.4817 3.1192 4.6437 0 7.2441-0.0791 7.3536-2.6552 3.6757-1.5119-2.1585-4.4497-3.7909-6.8227-3.7909-3.9089 0-4.1674 0.57585-4.1674 9.2805 0 5.1043 0.75723 9.7485 1.6827 10.32 2.6621 1.6452 13.778-2.054 16.345-5.4394 2.1023-2.7724 2.3369-2.7932 2.3858-0.21164 0.11684 6.1637-4.6856 8.2238-19.171 8.2238-10.784 0-13.41-0.45485-11.818-2.0468zm37.525 0c1.3257-1.3257 2.0468-8.2063 2.0468-19.53 0-14.852-0.44934-17.745-2.9849-19.222-2.1875-1.2741 1.1767-1.7524 12.594-1.7904 15.28-0.0508 15.594 0.0299 16.394 4.2123 0.98934 5.1754-0.52877 5.5032-3.4944 0.7544-1.6944-2.7132-3.6264-3.3906-8.5122-2.9849-6.2759 0.52116-6.3203 0.57881-6.3203 8.2003 0 6.742 0.48384 7.744 3.9784 8.239 2.1881 0.3099 5.4502-0.76849 7.2491-2.3964 3.1785-2.8765 3.2651-2.7482 3.0728 4.5535-0.10882 4.1324-0.54878 6.1708-0.97767 4.5297-0.85551-3.2734-7.5668-5.6291-11.613-4.0764-1.7336 0.66525-2.5623 3.3727-2.5623 8.3712 0 12.133 5.2652 14.53 15.966 7.2687 6.6076-4.484 8.912-2.1745 3.0886 3.0956-3.9061 3.535-31.448 4.3004-27.924 0.77606zm37.866-1.3645c5.0516-5.0516 4.9689-28.262-0.12383-34.736l-3.5351-4.4942h5.0077c4.0378 0 7.8562 2.8907 19.714 14.925l14.707 14.925 0.0244-12.269c0.0215-10.76-0.44173-12.596-3.7664-14.925-3.6827-2.5795-3.582-2.6552 3.5332-2.6552 6.6582 0 7.0804 0.24367 4.6437 2.6803-2.1097 2.1097-2.6802 6.6496-2.6802 21.326v18.646l-16.152-16.635-16.152-16.635-0.0519 13.975c-0.0466 12.539 0.33756 14.248 3.7389 16.63 3.6599 2.5635 3.5126 2.6552-4.2642 2.6552-8.0551 0-8.0551 0-4.6438-3.4113zm57.875-16.642c-4.0172-11.016-8.1286-20.594-9.1365-21.283-1.0079-0.68922 1.4055-1.2649 5.363-1.2792 5.4822-0.0199 6.9768 0.54394 6.2769 2.3679-0.89857 2.3417 4.611 22.463 7.626 27.85 1.2067 2.1562 2.2714 1.0265 5.1364-5.4505 4.4572-10.076 4.4823-12.262 0.2216-19.25l-3.3799-5.5434h6.744c5.3452 0 6.5369 0.53991 5.7452 2.603-1.0059 2.6214 5.6845 25.859 7.8263 27.183 0.63263 0.39099 3.0047-4.637 5.2713-11.173 3.4108-9.8361 3.759-12.464 2.0201-15.248-1.9131-3.0633-1.6504-3.3641 2.9366-3.3641h5.0376l-3.8559 8.9547c-2.1208 4.9251-5.7084 14.525-7.9726 21.333-2.2642 6.8078-4.7864 12.155-5.605 11.882-0.81856-0.27285-3.0526-5.2672-4.9645-11.099-1.912-5.8314-4.0362-10.603-4.7205-10.603-0.68433 0-3.2066 4.5249-5.6051 10.055-2.3985 5.5304-5.1034 10.514-6.011 11.075-0.9076 0.56094-4.937-7.9936-8.9541-19.01zm56.064 18.006c1.3278-1.3278 2.0468-8.2373 2.0468-19.67 0-16.682-0.20502-17.706-3.8378-19.166-3.0144-1.2116-1.8435-1.5658 5.4581-1.6507 7.2301-0.0841 8.841 0.34673 7.2491 1.9387-2.259 2.259-2.8892 33.285-0.74143 36.501 0.68922 1.032 2.4045 2.3146 3.8116 2.8502 1.4072 0.53567-1.6246 1.0345-6.7374 1.1086-7.2301 0.10473-8.841-0.32018-7.2491-1.9121zm28.932-0.62324c-5.647-3.064-9.829-10.629-9.829-17.781 0-7.4019 6.1413-18.604 11.268-20.553 6.5351-2.4847 8.9502-1.8275 3.7188 1.0119-10.292 5.5862-10.144 25.687 0.24424 33.084 6.6752 4.7531 12.437 4.3929 19.092-1.1936 4.2577-3.5741 5.3038-3.9469 4.395-1.5662-0.65596 1.7184-1.1926 3.4351-1.1926 3.8148 0 0.37974-2.7802 1.8521-6.1781 3.2718-7.7246 3.2276-15.464 3.1957-21.518-0.0887zm38.873-2.0205c1.5413-2.9546 2.4507-9.8628 2.4574-18.666 0.0102-12.514-0.38575-14.253-3.7804-16.63-3.6225-2.5373-3.3762-2.6492 5.5434-2.5206 5.1338 0.074 8.3748 0.5218 7.2022 0.99497-1.3038 0.52609-2.1321 4.1498-2.1321 9.3279v8.4676l10.66-0.5078c9.7195-0.46298 10.711-0.86184 11.228-4.519 0.87214-6.1615-1.1012-11.859-4.4067-12.723-1.6411-0.42889 1.2378-0.80825 6.3974-0.84301 5.1596-0.0348 8.4217 0.32394 7.2491 0.79711-1.5167 0.61199-2.1321 6.0574-2.1321 18.866 0 15.148 0.47375 18.365 2.9849 20.272 2.6006 1.9742 1.7981 2.2729-6.2342 2.3201-8.9468 0.0527-9.1326-0.0413-6.2897-3.1828 2.0529-2.2684 2.77-5.4582 2.3964-10.66l-0.53301-7.4234h-10.234-10.234l-0.533 7.4234c-0.37352 5.2022 0.34352 8.392 2.3964 10.66 2.8404 3.1386 2.6654 3.237-5.7621 3.237h-8.6915l2.4468-4.6906zm-315.26-27.631c-0.47832-1.8291-3.4461-4.9703-6.5952-6.9804l-5.7255-3.6548 5.117 1.2484c2.8144 0.68665 6.4602 1.1891 8.1019 1.1166 2.2895-0.10115 2.9849 1.2343 2.9849 5.732 0 6.3342-2.4685 7.9477-3.8832 2.5382zm302.33-0.17693c-1.031-1.9264-4.3201-5.0701-7.3091-6.9858l-5.4346-3.4832 5.7566 1.016c3.1661 0.55879 6.6551 1.016 7.7533 1.016s2.1776 2.6864 2.3987 5.9698c0.45794 6.7997-0.46237 7.5171-3.165 2.4672zm-316.28-30.51c-0.54414-0.88046 0.21664-2.2758 1.6906-3.1006 1.686-0.94353 3.2682-5.569 4.2658-12.471 2.2063-15.264 2.0768-16.924-1.3306-17.061-2.6055-0.10473-2.5662-0.28384 0.30917-1.41 1.8756-0.7346 4.0976-4.1539 5.1601-7.9408 1.1937-4.2546 3.5187-7.5783 6.4532-9.2254 5.1374-2.8836 9.0492-0.91956 6.4724 3.2497-1.1708 1.8943-2.0414 1.9891-3.9236 0.42695-3.3521-2.782-4.6636-0.87647-4.6636 6.7754 0 5.593 0.55487 6.563 3.8378 6.7084 3.6407 0.16135 3.6188 0.23047-0.42642 1.3474-3.9206 1.0825-4.4067 2.3402-6.0333 15.609-0.97301 7.9376-2.3615 15.391-3.0856 16.562-1.5423 2.4955-7.295 2.8444-8.7259 0.52925zm-20.411-11.313c-4.14-4.14-3.4379-14.776 1.2674-19.196 5.515-5.1811 13.924-4.9472 17.485 0.4862 7.4346 11.347-9.3591 28.103-18.752 18.71zm10.754-1.3295c1.0517-1.2673 2.3993-5.8574 2.9946-10.2 0.8788-6.4114 0.55441-8.0987-1.7252-8.9735-4.8102-1.8459-7.881 2.5059-7.881 11.169 0 10.215 2.3832 13.1 6.6116 8.0052zm-2.2311-71.36c-4.4256-3.8067-4.8343-5.2441-5.6727-19.948-0.63302-11.102-1.596-16.112-3.217-16.734-4.6672-1.791-2.1003-3.0813 6.1295-3.0813 5.3325 0 7.8461 0.59699 6.8227 1.6204-0.89121 0.89121-1.6204 8.6396-1.6204 17.219 0 12.945 0.53055 16.078 3.1192 18.421 3.1441 2.8454 11.314 3.7227 16.42 1.7633 4.7977-1.8411 7.7519-10.175 7.7519-21.868 0-9.3098-0.56479-11.51-3.4113-13.287-4.8312-3.0171-4.2682-3.8683 2.5585-3.8683 6.1688 0 7.0768 0.71817 4.4209 3.4966-0.85191 0.89121-1.8113 8.2928-2.1321 16.448-0.71667 18.222-3.6048 22.03-17.588 23.19-7.463 0.6189-9.5416 0.10285-13.581-3.3716zm42.099 1.357c2.4986-1.8967 2.9849-5.0923 2.9849-19.614 0-13.847-0.51632-17.547-2.5585-18.33-4.2266-1.6219-2.898-3.1753 2.716-3.1753 4.4864 0 7.2259 2.2108 18.336 14.797 7.1838 8.1383 13.637 14.854 14.341 14.925 0.70359 0.0702 1.2792-5.6536 1.2792-12.72 0-11.764-0.32372-12.968-3.8378-14.273-3.2606-1.2112-2.7475-1.5304 3.4113-2.1222 3.987-0.38312 7.2491-0.10064 7.2491 0.62774s-0.76755 1.3243-1.7057 1.3243c-1.0424 0-1.7057 7.9598-1.7057 20.468 0 11.257-0.57566 20.452-1.2792 20.433-0.70358-0.0193-7.8034-7.3092-15.777-16.2-7.974-8.8906-15.074-16.166-15.777-16.169-0.70359-0.002-1.2792 6.0426-1.2792 13.433 0 12.005 0.40917 13.723 3.8378 16.114 3.7103 2.5882 3.5546 2.6782-4.6906 2.7123-7.4484 0.0307-8.1504-0.25169-5.5434-2.2306zm52.876 0c2.4986-1.8967 2.9849-5.0923 2.9849-19.614 0-13.847-0.51633-17.547-2.5585-18.33-4.764-1.8281-2.5929-3.1753 5.117-3.1753 7.4096 0 9.5295 1.2114 5.9698 3.4113-0.95096 0.58773-1.7057 8.5138-1.7057 17.913 0 15.488 0.30826 17.075 3.7908 19.514 3.6096 2.5283 3.3039 2.6526-6.3962 2.601-8.8374-0.0471-9.7916-0.35445-7.2022-2.3201zm40.427-1.0484c-2.687-4.8572-9.4922-20.542-12.206-28.132-1.0062-2.8144-3.2117-6.6521-4.9011-8.5283-3.0305-3.3655-2.9586-3.4113 5.3533-3.4113 4.6338 0 8.425 0.57567 8.425 1.2792 0 0.70359-0.82853 1.2792-1.8412 1.2792-1.1335 0-1.434 1.8539-0.78184 4.8232 1.5473 7.0447 9.0139 24.887 10.624 25.387 1.73 0.53664 9.1331-17.226 10.28-24.666 0.69294-4.4942 0.28133-5.5434-2.1747-5.5434-1.6662 0-2.531-0.49844-1.9217-1.1076 1.5666-1.5666 13.108-1.7177 13.107-0.17161-0.00056 0.70359-0.76857 1.2792-1.7067 1.2792-0.93811 0-1.754 0.95944-1.813 2.1321-0.059 1.1726-4.1536 10.57-9.0991 20.883-8.7805 18.31-9.047 18.651-11.344 14.498zm30.444 1.376c1.3278-1.3278 2.0468-8.237 2.0468-19.669 0-14.09-0.51273-17.819-2.5585-18.604-5.9047-2.2658-1.6395-3.1423 12.789-2.6278l15.355 0.54746-0.13475 4.5695c-0.0798 2.7121-0.53044 3.5296-1.1085 2.011-1.4313-3.7601-4.0569-5.0616-10.27-5.0909-5.5185-0.026-5.5434 0.0123-5.5434 8.5022 0 7.6154 0.39641 8.5283 3.7034 8.5283 2.0369 0 5.1071-1.2703 6.8227-2.8228 2.9767-2.6939 3.1192-2.4817 3.1192 4.6437 0 7.2441-0.0791 7.3536-2.6552 3.6757-1.5119-2.1585-4.4497-3.7908-6.8227-3.7908-3.9144 0-4.1674 0.56975-4.1674 9.3812v9.3812h5.7398c3.2241 0 7.7096-1.5494 10.234-3.5351 3.5982-2.8303 4.4942-3.0196 4.4942-0.94954 0 5.1626-7.0399 7.896-20.336 7.896-9.9198 0-12.299-0.45485-10.707-2.0468zm36.587-0.32757c2.5138-1.9082 2.9849-5.1304 2.9849-20.414 0-14.994-0.44458-18.148-2.5585-18.148-1.4072 0-2.5594-0.57566-2.5604-1.2792-0.003-2.2312 28.301 0.27117 31.301 2.7674 3.9863 3.3161 3.5804 11.427-0.72273 14.441l-3.5368 2.4773 3.6076 7.0714c1.9842 3.8893 5.0715 8.5354 6.8609 10.325 3.2006 3.2006 3.1938 3.2722-0.42413 4.4205-2.8584 0.90721-4.7384-0.10371-8.4411-4.5389-2.62-3.1383-4.7636-6.5755-4.7636-7.6382 0-3.1894-6.5037-8.0652-9.3176-6.9854-4.3099 1.6539-3.4741 13.968 1.1688 17.22 3.6096 2.5283 3.3039 2.6526-6.3962 2.601-8.8374-0.0471-9.7916-0.35445-7.2022-2.3201zm23.405-24.006c3.1633-3.8116-0.13782-11.663-5.7356-13.641-3.5653-1.26-5.0204-1.0608-6.2308 0.85283-1.8301 2.8934-2.1649 12.481-0.49424 14.152 2.0797 2.0797 10.354 1.1739 12.461-1.364zm26.815 25.186c-3.1639-0.81998-6.3524-7.0299-6.2311-12.136 0.0433-1.824 1.0686-1.0045 2.8064 2.2431 3.4776 6.4988 5.2305 7.6172 11.99 7.6494 6.0033 0.0286 9.805-4.4582 7.9261-9.3546-0.59204-1.5428-5.1296-4.5977-10.083-6.7885-13.194-5.8351-15.879-12.317-8.4313-20.354 3.549-3.8294 5.2164-4.4302 9.8076-3.5338 3.0424 0.59398 6.8749 1.0707 8.5166 1.0594 2.3114-0.0159 2.9792 1.3988 2.9598 6.2697-0.0247 6.1858-0.0609 6.2195-2.182 2.0261-1.1863-2.3453-4.3321-5.3072-6.9908-6.582-4.3484-2.085-5.181-1.9707-8.289 1.1372-4.5277 4.5277-2.9558 8.1082 5.0234 11.442 14.134 5.9056 18.218 15.694 9.9826 23.929-4.026 4.026-9.2362 4.9537-16.805 2.9922zm29.946-1.18c2.4986-1.8967 2.9849-5.0924 2.9849-19.616 0-16.398-0.21048-17.435-3.8378-18.893-4.5626-1.834-4.4256-1.8866 5.9712-2.2941 7.7452-0.30354 10.071 0.82172 6.3949 3.0938-0.95096 0.58773-1.7057 8.5138-1.7057 17.913 0 15.488 0.30826 17.075 3.7908 19.514 3.6096 2.5283 3.3039 2.6526-6.3962 2.601-8.8374-0.0471-9.7916-0.35445-7.2022-2.3201zm33.26-0.48163c3.5402-2.4695 3.8378-3.9834 3.8378-19.526v-16.849h-5.8731c-4.1091 0-6.729 1.1526-8.7228 3.8377l-2.8498 3.8378 1.0241-4.2642c0.56324-2.3453 1.0344-5.0317 1.047-5.9698 0.0136-1.0525 7.3714-1.5922 19.212-1.4094l19.189 0.29622 0.46503 4.8208c0.42249 4.3797 0.24923 4.5477-1.8937 1.8359-1.473-1.864-4.69-2.9849-8.5669-2.9849h-6.2082v17.099c0 16.669 0.10711 17.14 4.2642 18.72 6.8315 2.5973 5.042 3.4174-7.2491 3.3219-10.965-0.0853-11.33-0.21706-7.6755-2.7665zm44.774-0.55533c1.8762-1.8762 3.4012-5.5221 3.3888-8.1019-0.0247-5.1294-12.729-29.423-15.386-29.423-0.90628 0-1.6478-0.57566-1.6478-1.2792 0-0.70358 3.4204-1.2792 7.601-1.2792 6.709 0 7.5147 0.40034 6.8657 3.4113-0.80579 3.7384 4.0754 14.756 6.9488 15.685 0.99014 0.32003 3.6-2.6204 5.7997-6.5342 3.6657-6.5222 3.7646-7.2878 1.1846-9.1743-4.0042-2.928-3.576-3.3878 3.155-3.3878 5.9148 0 7.587 1.3577 4.2286 3.4333-0.95766 0.59187-4.0206 5.0506-6.8067 9.9082-6.0623 10.57-7.084 24.005-2.1126 27.779 2.5936 1.9688 1.6991 2.273-6.8227 2.3201-9.8076 0.0542-9.8076 0.0542-6.3962-3.3571zm-532.7-84.676c-0.6003-0.6003 1.1334-3.9006 3.8528-7.334l4.9442-6.2426-4.8773-18.648c-2.6825-10.256-4.655-18.87-4.3833-19.142 0.27169-0.27168 1.8684 3.169 3.5483 7.646 3.557 9.4797 8.9482 22.16 11.296 26.569 3.2476 6.0993-9.8322 21.699-14.38 17.151zm-10.266-8.0507-4.3711-5.7308 4.0726-16.869c2.2399-9.2781 4.3951-18.788 4.7892-21.133 0.3941-2.3453 0.82108 7.8247 0.94884 22.6 0.12775 14.775-0.0604 26.864-0.41811 26.864-0.35772 0-2.6174-2.5788-5.0215-5.7308z"/>
 </g>
</svg>
